<?xml version="1.0" encoding="iso-8859-1"?>
<!-- Generator: Adobe Illustrator 18.0.0, SVG Export Plug-In . SVG Version: 6.00 Build 0)  -->
<!DOCTYPE svg PUBLIC "-//W3C//DTD SVG 1.1//EN" "http://www.w3.org/Graphics/SVG/1.1/DTD/svg11.dtd">
<svg version="1.1" id="Capa_1" xmlns="http://www.w3.org/2000/svg" xmlns:xlink="http://www.w3.org/1999/xlink" x="0px" y="0px"
	 viewBox="0 0 56 56" style="enable-background:new 0 0 56 56;" xml:space="preserve">
<g>
	<path  fill='white' d="M48.139,0H7.861C3.526,0,0,3.526,0,7.861v40.278C0,52.474,3.526,56,7.861,56h40.278C52.474,56,56,52.474,56,48.139V7.861
		C56,3.526,52.474,0,48.139,0z M54,48.139C54,51.371,51.371,54,48.139,54H7.861C4.629,54,2,51.371,2,48.139V7.861
		C2,4.629,4.629,2,7.861,2h40.278C51.371,2,54,4.629,54,7.861V48.139z"/>
	<path  fill='white' d="M48.139,4H7.861C5.732,4,4,5.732,4,7.861v40.278C4,50.268,5.732,52,7.861,52h40.278C50.268,52,52,50.268,52,48.139V7.861
		C52,5.732,50.268,4,48.139,4z M50,7.861V27H29V6h19.139C49.165,6,50,6.835,50,7.861z M7.861,6H27v21H6V7.861
		C6,6.835,6.835,6,7.861,6z M6,48.139V29h21v21H7.861C6.835,50,6,49.165,6,48.139z M48.139,50H29V29h21v19.139
		C50,49.165,49.165,50,48.139,50z"/>
	<path  fill='white' d="M16.5,25c4.687,0,8.5-3.813,8.5-8.5S21.187,8,16.5,8S8,11.813,8,16.5S11.813,25,16.5,25z M16.5,10
		c3.584,0,6.5,2.916,6.5,6.5S20.084,23,16.5,23S10,20.084,10,16.5S12.916,10,16.5,10z"/>
	<path  fill='white' d="M32.293,16.707l7,7C39.488,23.902,39.744,24,40,24s0.512-0.098,0.707-0.293l7-7c0.391-0.391,0.391-1.023,0-1.414l-7-7
		c-0.391-0.391-1.023-0.391-1.414,0l-7,7C31.902,15.684,31.902,16.316,32.293,16.707z M40,10.414L45.586,16L40,21.586L34.414,16
		L40,10.414z"/>
	<path  fill='white' d="M24.895,45.553l-7-14c-0.339-0.678-1.45-0.678-1.789,0l-7,14c-0.155,0.31-0.138,0.678,0.044,0.973
		C9.332,46.82,9.653,47,10,47h14c0.347,0,0.668-0.18,0.851-0.474C25.033,46.231,25.049,45.863,24.895,45.553z M11.618,45L17,34.236
		L22.382,45H11.618z"/>
	<path  fill='white' d="M48.158,37.013l-4.962-0.796l-2.3-4.659c-0.337-0.683-1.456-0.683-1.793,0l-2.3,4.659l-4.962,0.796
		c-0.371,0.06-0.677,0.321-0.792,0.678c-0.116,0.357-0.023,0.749,0.242,1.015l3.545,3.566l-0.878,5.122
		c-0.064,0.375,0.09,0.754,0.398,0.978c0.309,0.225,0.716,0.253,1.053,0.076L40,46.033l4.591,2.414
		c0.146,0.077,0.306,0.115,0.465,0.115c0.207,0,0.414-0.064,0.588-0.191c0.308-0.224,0.462-0.603,0.398-0.978l-0.878-5.122
		l3.545-3.566c0.265-0.266,0.358-0.658,0.242-1.015C48.835,37.334,48.529,37.072,48.158,37.013z M43.382,41.227
		c-0.229,0.229-0.332,0.555-0.277,0.874l0.623,3.633l-3.263-1.715C40.32,43.941,40.16,43.903,40,43.903s-0.32,0.038-0.465,0.115
		l-3.263,1.715l0.623-3.633c0.055-0.319-0.048-0.645-0.277-0.874l-2.533-2.548l3.545-0.568c0.32-0.051,0.595-0.254,0.738-0.545
		L40,34.259l1.632,3.306c0.143,0.291,0.418,0.494,0.738,0.545l3.545,0.568L43.382,41.227z"/>
</g>
<g>
</g>
<g>
</g>
<g>
</g>
<g>
</g>
<g>
</g>
<g>
</g>
<g>
</g>
<g>
</g>
<g>
</g>
<g>
</g>
<g>
</g>
<g>
</g>
<g>
</g>
<g>
</g>
<g>
</g>
</svg>
